<?xml version="1.0" encoding="UTF-8"?><svg id="Layer_1" xmlns="http://www.w3.org/2000/svg" viewBox="0 0 982.33 982.33"><defs><style>.cls-1{stroke-width:50px;}.cls-1,.cls-2{fill:none;stroke:#38bdf8;stroke-linecap:round;stroke-miterlimit:10;}.cls-3{fill:#38bdf8;}.cls-2{stroke-width:20px;}</style></defs><path class="cls-3" d="M491.17,40c60.92,0,120.01,11.92,175.6,35.44,53.72,22.72,101.97,55.26,143.42,96.7,41.45,41.45,73.98,89.7,96.71,143.42,23.52,55.6,35.44,114.68,35.44,175.6s-11.92,120.01-35.44,175.6c-22.72,53.72-55.26,101.97-96.71,143.42-41.45,41.45-89.7,73.98-143.42,96.71-55.6,23.52-114.68,35.44-175.6,35.44s-120.01-11.92-175.6-35.44c-53.72-22.72-101.97-55.26-143.42-96.71-41.45-41.45-73.98-89.7-96.7-143.42-23.52-55.6-35.44-114.68-35.44-175.6s11.92-120.01,35.44-175.6c22.72-53.72,55.26-101.97,96.7-143.42s89.7-73.98,143.42-96.7c55.6-23.52,114.68-35.44,175.6-35.44M491.17,0C219.9,0,0,219.9,0,491.17s219.9,491.17,491.17,491.17,491.17-219.9,491.17-491.17S762.43,0,491.17,0h0Z"/><line class="cls-1" x1="491.17" y1="491.17" x2="358.71" y2="367.83"/><line class="cls-1" x1="491.15" y1="495.12" x2="775.37" y2="206.33"/><line class="cls-2" x1="491.17" y1="84.17" x2="491.17" y2="114.17"/><line class="cls-2" x1="491.17" y1="870.3" x2="491.17" y2="900.3"/><line class="cls-2" x1="111.35" y1="491.17" x2="81.35" y2="491.17"/><line class="cls-2" x1="898.64" y1="491.17" x2="868.64" y2="491.17"/><circle class="cls-1" cx="491.15" cy="491.17" r="25.6"/></svg>